<svg xmlns="http://www.w3.org/2000/svg" xmlns:xlink="http://www.w3.org/1999/xlink" width="88" height="17" viewBox="0 0 88 17">
    <defs>
        <path id="a" d="M0 9.643V.405h3.94v9.238z"/>
    </defs>
    <g fill="none" fill-rule="evenodd">
        <path fill="#1D1D1C" d="M86.163 3.373c-.103.045-.287.067-.558.067h-.361V2.73h.561c.34 0 .508.113.508.334 0 .16-.05.26-.15.308m.436-.303c0-.094-.02-.181-.06-.263a.435.435 0 0 0-.17-.186c-.113-.07-.282-.105-.505-.105h-.895v2.087h.275v-.946h.414l.588.946h.324l-.622-.946a.763.763 0 0 0 .47-.152c.121-.093.18-.24.18-.435m.171 1.636a1.393 1.393 0 0 1-1.07.467c-.423 0-.783-.156-1.071-.467-.286-.309-.431-.691-.431-1.15 0-.44.145-.817.438-1.132.29-.318.643-.475 1.064-.475.422 0 .778.157 1.067.475.29.315.434.692.434 1.132 0 .459-.143.841-.43 1.15m.173-2.465a1.645 1.645 0 0 0-1.244-.545c-.486 0-.895.181-1.244.545a1.863 1.863 0 0 0-.513 1.315c0 .518.172.96.513 1.324.349.365.758.547 1.244.547.488 0 .9-.182 1.244-.547.342-.363.514-.806.514-1.324 0-.51-.172-.949-.514-1.315m-8.927-.155c-2.88 0-4.682 1.138-6.067 3.7h-.044l.87-3.224h-6.587l-3.652 13.721h6.724l1.449-5.556c.54-2.084 1.16-2.472 2.43-2.472.72 0 1.333.285 1.333 1.152 0 .525-.385 1.91-.613 2.735L72.7 16.283h6.855l2.246-8.21c.277-.946.502-1.904.502-2.814 0-2.377-2.018-3.173-4.287-3.173m-48.922 6.17c.612 0 1.4.246 1.4 1 0 .407-.32 1.361-.517 2.09l-1.408 4.937h6.447l1.364-5.142c.54-2.134.853-2.886 2.448-2.886.606 0 1.4.247 1.4 1 0 .408-.32 1.362-.516 2.09l-1.408 4.938h6.6l2.295-8.612c.199-.772.453-1.822.453-2.616 0-1.968-1.858-2.969-4.083-2.969-2.676 0-4.674 1.367-5.607 3.7h-.045c0-2.976-1.246-3.7-4.04-3.7-2.843 0-4.557 1.269-5.789 3.7h-.043l.998-3.224h-6.556l-3.681 13.721h6.468l1.362-5.142c.548-2.134.861-2.886 2.458-2.886m29.175 4.607c-1.217 0-1.814-.248-1.814-.86 0-.364.203-1.041.32-1.458l.772-2.859h5.621l1.416-5.123h-5.702l.73-2.479h-3.814C54.66 1.11 51.24 3.86 49.19 4.997l-.634 2.688h2.363l-1.356 5.002c-.212.737-.328 1.473-.328 2.057 0 1.953 2.662 2.02 4.23 2.02 1.88 0 4.497-.344 6.373-.685l1.72-3.669c-1.014.175-2.065.452-3.29.452M6.526 13.607c-.39 0-.71-.117-1.062-.304-.382-.19-.763-.442-1.227-.645l-.056-.018a.6.6 0 0 0-.568.17c-.127.12-.2.285-.253.42-.104.286-.143.624-.164.828l-.014.126.074.095C4.658 16.243 8.083 17.1 9.44 16.78c1.975-.468 5.367-2.706 6.601-4.97a12.76 12.76 0 0 0 .755-1.73c.052-.164.096-.316.119-.442a.811.811 0 0 0-.01-.434c-.083-.241-.326-.325-.533-.263-.148.047-.29.15-.434.272-1.38 1.154-5.47 4.393-9.412 4.393"/>
        <g transform="translate(0 3.812)">
            <mask id="b" fill="#fff">
                <use xlink:href="#a"/>
            </mask>
            <path fill="#1D1D1C" d="M2.086 9.596a.52.52 0 0 0 .207-.187c.04-.056.07-.126.1-.182.053-.113.109-.247.174-.39.065-.13.134-.247.212-.339.295-.346.469-.437.63-.472.298-.057.594-.256.52-.62a.654.654 0 0 0-.118-.269c-.039-.06-.082-.104-.113-.143-.836-.988-1.968-3.985-1.968-5.915 0-.584-.447-.966-.85-.385-.169.229-.33.614-.4.845-.78 2.559-.718 5.676 1.004 7.866.09.116.316.333.602.19" mask="url(#b)"/>
        </g>
        <path fill="#1D1D1C" d="M5.018 10.94c.94 1.396 1.24 1.656 3.29 1.188 1.346-.308 3.345-1.522 5.093-2.593 1.97-1.2 2.762-2.324 2.889-3.46.06-.555-.048-1.085-.213-1.578-.161-.473-.386-.94-.591-1.405-.394-.902-2.03-3.209-6.723-3.087-4.401.12-6.556 1.92-5.741 6.08.282 1.435 1.444 4.04 1.996 4.855"/>
    </g>
</svg>
